<?xml version="1.0" standalone="no"?>
<!DOCTYPE svg PUBLIC "-//W3C//DTD SVG 20010904//EN"
 "http://www.w3.org/TR/2001/REC-SVG-20010904/DTD/svg10.dtd">
<svg version="1.0" xmlns="http://www.w3.org/2000/svg"
 width="300.000000pt" height="300.000000pt" viewBox="0 0 300.000000 300.000000"
 preserveAspectRatio="xMidYMid meet">
<metadata>
Created by potrace 1.10, written by Peter Selinger 2001-2011
</metadata>
<g transform="translate(0.000000,300.000000) scale(0.100000,-0.100000)"
fill="#000000" stroke="none">
<path d="M450 2812 c0 -3 41 -83 90 -178 l90 -173 0 -88 0 -88 65 3 65 4 0 88
0 89 90 173 c50 95 90 173 90 174 0 1 -32 1 -72 0 l-71 -1 -42 -90 c-22 -49
-45 -101 -51 -114 -9 -21 -15 -12 -60 90 l-51 113 -71 1 c-40 1 -72 -1 -72 -3z
m123 -49 c8 -10 30 -50 47 -90 18 -40 43 -79 56 -88 22 -14 25 -14 44 5 10 10
36 55 56 99 23 51 44 83 56 87 45 14 39 -14 -33 -157 -63 -126 -73 -153 -78
-214 -5 -58 -9 -70 -25 -73 -26 -5 -33 11 -35 80 -1 53 -9 76 -72 200 -39 77
-68 146 -65 154 7 19 30 18 49 -3z"/>
<path d="M1149 2806 c-157 -56 -223 -238 -142 -388 78 -144 284 -180 412 -72
17 14 44 47 59 73 24 40 27 56 27 131 0 95 -14 135 -68 190 -69 71 -194 100
-288 66z m201 -46 c78 -40 123 -116 123 -206 0 -139 -95 -234 -236 -234 -128
0 -227 100 -227 231 0 148 113 248 260 232 25 -3 61 -13 80 -23z"/>
<path d="M1165 2721 c-22 -12 -51 -37 -65 -58 -21 -31 -25 -48 -25 -113 0 -68
3 -80 28 -113 38 -50 81 -71 145 -70 43 0 60 6 90 30 55 44 75 86 75 152 0
108 -60 181 -156 188 -38 3 -62 -1 -92 -16z m152 -36 c84 -55 85 -214 1 -265
-41 -25 -110 -26 -149 -3 -34 20 -69 86 -69 129 0 76 37 135 96 154 37 12 90
5 121 -15z"/>
<path d="M1580 2645 c0 -207 11 -255 70 -309 48 -43 74 -51 162 -50 87 1 151
37 185 104 21 42 23 59 24 235 l1 189 -60 1 -61 1 -3 -184 -3 -184 -28 -24
c-31 -26 -90 -32 -118 -11 -34 26 -39 54 -39 229 l0 174 -65 0 -65 0 0 -171z
m88 123 c8 -8 12 -58 12 -160 0 -159 8 -191 52 -222 13 -9 43 -16 70 -16 41 0
54 5 86 34 l37 34 5 165 c3 91 9 169 13 173 4 5 16 3 25 -2 15 -10 17 -31 17
-170 0 -188 -11 -222 -86 -262 -57 -30 -162 -28 -206 4 -64 48 -68 61 -71 241
-2 91 -1 171 2 179 7 17 28 18 44 2z"/>
<path d="M2120 2813 c0 -2 -1 -121 -1 -264 l0 -261 62 0 62 0 -2 101 c-2 91 0
101 16 101 13 0 34 -30 71 -99 l52 -99 73 -4 c39 -2 73 -3 75 -2 1 1 -25 48
-59 105 -33 57 -57 105 -52 106 31 11 75 47 89 74 22 44 21 120 -3 161 -36 61
-79 76 -241 80 -78 1 -142 2 -142 1z m307 -58 c34 -20 63 -68 63 -105 0 -35
-27 -83 -60 -105 -56 -37 -57 -54 -11 -138 33 -61 38 -76 26 -81 -27 -10 -44
5 -81 72 -40 73 -80 122 -101 122 -7 0 -22 -9 -33 -20 -16 -16 -20 -33 -20
-90 0 -56 -3 -71 -17 -78 -41 -21 -43 -9 -43 208 0 115 3 216 7 225 9 26 223
18 270 -10z"/>
<path d="M2226 2718 c-10 -14 -16 -44 -16 -78 0 -73 25 -100 92 -100 111 0
166 106 91 176 -22 20 -36 24 -89 24 -54 0 -65 -3 -78 -22z m150 -34 c20 -19
24 -31 19 -52 -10 -41 -25 -50 -90 -53 l-60 -3 -3 67 -3 67 56 0 c47 0 60 -4
81 -26z"/>
<path d="M1006 1754 c-67 -21 -147 -102 -165 -166 -17 -59 -10 -161 13 -209
39 -82 122 -138 218 -146 111 -11 204 36 257 129 101 177 -12 392 -213 404
-37 2 -80 -2 -110 -12z m191 -44 c173 -76 179 -334 9 -419 -58 -28 -142 -31
-204 -6 -76 31 -142 128 -142 209 0 85 55 177 127 215 53 27 151 27 210 1z"/>
<path d="M1024 1671 c-139 -63 -132 -292 11 -346 147 -57 283 100 220 252 -20
48 -41 71 -87 94 -47 24 -91 24 -144 0z m141 -33 c42 -19 70 -75 69 -138 0
-101 -47 -150 -142 -150 -83 0 -132 56 -132 150 0 94 49 150 131 150 26 0 60
-5 74 -12z"/>
<path d="M1592 1752 c-61 -22 -114 -68 -145 -127 -17 -32 -22 -58 -22 -125 0
-95 16 -139 68 -191 53 -54 103 -73 192 -73 72 -1 86 2 135 30 34 20 66 48 87
79 29 42 33 55 33 116 l0 69 -140 0 -140 0 0 -45 0 -45 86 0 85 0 -18 -31
c-24 -43 -91 -73 -143 -64 -74 13 -120 70 -120 150 0 93 53 155 133 155 40 0
93 -22 99 -41 5 -15 148 -18 148 -3 0 7 -15 33 -32 60 -61 90 -191 127 -306
86z m180 -32 c20 -6 51 -24 68 -40 55 -52 11 -69 -65 -25 -117 69 -248 -3
-259 -142 -10 -123 81 -214 200 -200 55 6 92 31 119 80 19 35 19 37 2 54 -10
10 -43 23 -75 29 l-57 11 50 2 c28 1 66 4 86 7 110 18 75 -141 -44 -201 -95
-47 -212 -29 -284 45 -83 85 -76 247 14 332 54 51 158 72 245 48z"/>
<path d="M2184 1759 c-60 -17 -126 -71 -158 -129 -27 -48 -31 -65 -31 -130 1
-64 5 -83 30 -129 55 -100 145 -148 259 -139 77 7 132 34 183 92 46 53 63 101
63 182 0 176 -175 303 -346 253z m174 -45 c179 -74 184 -345 8 -425 -48 -22
-151 -25 -193 -7 -134 58 -184 220 -107 344 55 90 190 131 292 88z"/>
<path d="M2195 1673 c-46 -24 -66 -45 -86 -88 -71 -155 64 -318 216 -261 141
54 149 284 11 347 -50 23 -101 23 -141 2z m149 -44 c39 -30 56 -71 56 -131 0
-92 -52 -150 -133 -150 -90 0 -140 53 -141 147 -2 102 46 155 140 155 37 0 59
-6 78 -21z"/>
<path d="M490 1495 l0 -265 150 0 150 0 0 50 0 50 -87 0 -88 0 3 215 3 215
-65 0 -66 0 0 -265z m90 37 c0 -183 1 -189 23 -210 15 -14 42 -24 80 -28 31
-4 54 -11 51 -15 -8 -14 -188 -11 -202 3 -13 13 -18 391 -6 422 3 9 17 16 30
16 l24 0 0 -188z"/>
<path d="M620 445 l0 -265 66 0 65 0 -3 110 -3 110 103 0 102 0 0 -110 0 -110
65 0 65 0 0 265 0 265 -65 0 -65 0 0 -105 0 -105 -102 0 -103 0 3 105 3 105
-65 0 -66 0 0 -265z m90 144 c7 -111 17 -119 138 -119 124 0 132 7 132 104 0
79 8 100 36 94 18 -3 19 -16 19 -223 0 -207 -1 -220 -19 -223 -28 -6 -36 15
-36 99 0 104 -9 112 -132 110 -124 -2 -136 -12 -140 -125 -3 -74 -5 -81 -24
-84 -15 -2 -23 4 -28 20 -8 30 -8 392 0 413 4 9 15 15 28 13 19 -3 22 -11 26
-79z"/>
<path d="M1170 445 l0 -265 160 0 160 0 0 53 0 52 -94 -3 -94 -3 -4 60 -3 61
88 0 87 0 0 50 0 50 -85 0 -85 0 0 56 0 55 95 -3 95 -3 0 53 0 52 -160 0 -160
0 0 -265z m280 216 c0 -14 -28 -21 -90 -21 -51 0 -61 -3 -79 -26 -26 -33 -28
-94 -3 -123 17 -21 44 -29 110 -30 50 -1 38 -21 -14 -21 -78 0 -113 -30 -114
-96 0 -27 7 -50 21 -68 18 -23 28 -26 79 -26 62 0 90 -7 90 -21 0 -14 -224
-11 -238 3 -17 17 -17 409 0 426 14 14 238 17 238 3z"/>
<path d="M1575 445 l0 -265 65 0 65 0 -3 100 c-4 95 -3 100 16 100 16 0 33
-24 74 -100 l53 -100 73 0 c40 0 71 3 69 8 -2 4 -30 50 -61 104 -31 53 -56 98
-56 101 0 3 11 8 24 11 34 8 82 67 90 110 15 81 -38 162 -121 185 -21 6 -94
11 -163 11 l-125 0 0 -265z m310 208 c36 -20 57 -51 62 -91 6 -48 -14 -91 -61
-127 -19 -14 -37 -33 -40 -41 -3 -8 12 -48 34 -90 22 -41 40 -77 40 -80 0 -3
-12 -4 -27 -2 -22 2 -35 15 -60 58 -59 102 -68 115 -95 124 -22 8 -32 6 -47
-8 -16 -15 -21 -34 -23 -95 -3 -74 -4 -76 -28 -76 l-25 0 0 220 0 220 35 5
c53 8 212 -4 235 -17z"/>
<path d="M1698 620 c-25 -19 -28 -28 -28 -80 0 -83 19 -104 94 -101 64 2 97
18 114 57 19 40 14 71 -16 105 -24 27 -38 33 -83 37 -45 3 -59 0 -81 -18z
m146 -42 c21 -30 20 -50 -5 -82 -18 -23 -28 -26 -80 -26 l-59 0 0 65 0 65 64
0 c56 0 67 -3 80 -22z"/>
<path d="M2070 445 l0 -265 160 0 160 0 0 53 0 52 -98 -3 -98 -3 1 60 0 61 88
0 87 0 0 50 0 50 -87 0 -88 0 -1 56 0 55 98 -3 98 -3 0 53 0 52 -160 0 -160 0
0 -265z m280 216 c0 -14 -28 -21 -88 -21 -74 0 -102 -24 -102 -87 0 -65 31
-93 105 -93 30 0 55 -4 55 -10 0 -5 -20 -10 -45 -10 -51 0 -99 -20 -109 -45
-14 -36 -6 -101 14 -123 17 -18 32 -22 80 -22 62 0 90 -7 90 -21 0 -5 -54 -9
-119 -9 -99 0 -120 3 -125 16 -8 20 -8 398 0 418 5 13 26 16 125 16 65 0 119
-4 119 -9z"/>
</g>
</svg>
